<svg width="33" height="33" viewBox="0 0 33 33" fill="none" xmlns="http://www.w3.org/2000/svg">
<path d="M4.06219 15.7398C4.06219 12.0271 4.06219 10.1695 5.18731 9.0168C6.31115 7.86283 8.12235 7.86283 11.7422 7.86283H21.9822C25.602 7.86283 27.4132 7.86283 28.5371 9.0168C29.6622 10.1695 29.6622 12.0271 29.6622 15.7398V17.0526C29.6622 20.7652 29.6622 22.6229 28.5371 23.7755C27.4132 24.9295 25.602 24.9295 21.9822 24.9295H11.7422C8.12235 24.9295 6.31115 24.9295 5.18731 23.7755C4.06219 22.6229 4.06219 20.7652 4.06219 17.0526V15.7398Z" stroke="#1D1E35" stroke-width="3"/>
<path d="M16.7425 17.3522L16.7431 17.3519C17.4862 16.8972 17.9307 16.6219 18.2181 16.3961C17.9307 16.1699 17.486 15.8941 16.7431 15.439L16.7425 17.3522ZM16.7425 17.3522C16.1282 17.7285 15.7173 17.9781 15.4094 18.1382C15.3775 17.7545 15.3755 17.218 15.3755 16.3959C15.3755 15.574 15.3775 15.0374 15.4094 14.6535M16.7425 17.3522L15.4094 14.6535M15.4094 14.6535C15.7173 14.8134 16.1282 15.0628 16.7425 15.4387L15.4094 14.6535ZM18.4154 16.5745C18.4153 16.5745 18.4148 16.5739 18.4139 16.5726C18.415 16.5739 18.4154 16.5745 18.4154 16.5745ZM15.0047 14.478C15.0047 14.478 15.0062 14.4782 15.0093 14.479C15.0063 14.4785 15.0047 14.4781 15.0047 14.478ZM18.4137 16.22C18.4146 16.2187 18.4151 16.2181 18.4152 16.2181C18.4152 16.2181 18.4147 16.2187 18.4137 16.22ZM15.0086 18.3133C15.0056 18.3141 15.0041 18.3143 15.0041 18.3143C15.0042 18.3142 15.0057 18.3139 15.0086 18.3133ZM15.4736 18.5513C15.4736 18.5513 15.4735 18.551 15.4732 18.5503L15.4736 18.5513Z" stroke="#1D1E35" stroke-width="3"/>
</svg>
