<?xml version="1.0" encoding="UTF-8" standalone="no"?>
<!-- Created with Inkscape (http://www.inkscape.org/) -->

<svg
   width="24.008663"
   height="16.237766"
   viewBox="0 0 24.008663 16.237766"
   version="1.1"
   id="svg5"
   xml:space="preserve"
   xmlns="http://www.w3.org/2000/svg"
   xmlns:svg="http://www.w3.org/2000/svg"><defs
     id="defs2" /><g
     id="layer1"><g
       id="g1338"
       transform="matrix(0.3998347,0,0,0.38697885,83.822099,-213.02477)"
       style="stroke-width:2.54223"><path
         d="m -207.09954,570.04357 c 0,-8.0218 0,-12.0356 2.41559,-14.5261 2.4128,-2.4934 6.3014,-2.4934 14.073,-2.4934 h 21.9847 c 7.7716,0 11.6601,0 14.073,2.4934 2.4155,2.4905 2.4155,6.5043 2.4155,14.5261 v 2.8366 c 0,8.0219 0,12.0356 -2.4155,14.5262 -2.4129,2.4933 -6.3014,2.4933 -14.073,2.4933 h -21.9847 c -7.7716,0 -11.6602,0 -14.073,-2.4933 -2.41559,-2.4906 -2.41559,-6.5043 -2.41559,-14.5262 z"
         stroke="#1d1e35"
         stroke-width="5.51283"
         id="path1334"
         style="fill:none;stroke:#000000;stroke-width:5.08448;stroke-dasharray:none" /><path
         style="fill:none;stroke:#000000;stroke-width:5.08448;stroke-dasharray:none;stroke-opacity:1"
         id="path1336"
         d="m -175.18538,598.13293 c 0,2.1364 -10.48431,8.18952 -12.33448,7.12132 -1.85018,-1.0682 -1.85018,-13.17443 0,-14.24263 1.85017,-1.0682 12.33448,4.98492 12.33448,7.12131 z"
         transform="translate(2.4277937,-26.671065)" /></g></g></svg>
